<svg xmlns="http://www.w3.org/2000/svg" width="195.98" height="178.398" viewBox="0 0 195.98 178.398"><g transform="translate(-87 -297.47)"><path d="M131.65,178.4H64.33a30.708,30.708,0,0,1-26.543-15.347L4.069,104.479a30.726,30.726,0,0,1,0-30.559l33.72-58.573A30.7,30.7,0,0,1,64.33,0h67.32a30.706,30.706,0,0,1,26.543,15.347L191.911,73.92a30.719,30.719,0,0,1,0,30.559l-16.166,28.083a7.657,7.657,0,1,1-13.271-7.64l16.166-28.083a15.363,15.363,0,0,0,0-15.279L144.921,22.987a15.351,15.351,0,0,0-13.271-7.673H64.33a15.351,15.351,0,0,0-13.271,7.673L17.34,81.56a15.363,15.363,0,0,0,0,15.279l33.718,58.572a15.351,15.351,0,0,0,13.271,7.673h67.32a15.351,15.351,0,0,0,13.271-7.673,7.657,7.657,0,1,1,13.271,7.64A30.708,30.708,0,0,1,131.65,178.4Z" transform="translate(87 297.469)" fill="#fbb732"/><g transform="translate(140.87 343.998)"><g transform="translate(0 0)"><g transform="translate(0 34.13)"><path d="M37.9,83.778a2.022,2.022,0,0,1-2.023-2.023V48.045H21.045v33.71a2.023,2.023,0,1,1-4.045,0V46.023A2.022,2.022,0,0,1,19.023,44H37.9a2.022,2.022,0,0,1,2.023,2.023V81.756A2.023,2.023,0,0,1,37.9,83.778Z" transform="translate(-17 -44)" fill="#fbb732"/></g><g transform="translate(31.883 16.6)"><path d="M63.249,88.308a2.022,2.022,0,0,1-2.023-2.023V35.045H45.045v51.24a2.023,2.023,0,1,1-4.045,0V33.023A2.022,2.022,0,0,1,43.023,31H63.249a2.023,2.023,0,0,1,2.023,2.023V86.285A2.022,2.022,0,0,1,63.249,88.308Z" transform="translate(-41 -31)" fill="#fbb732"/></g><g transform="translate(63.766)"><path d="M87.249,91.908a2.01,2.01,0,0,1-2.023-2V22H69.045V89.91a2.023,2.023,0,0,1-4.045,0V20a2.01,2.01,0,0,1,2.023-2H87.249a2.01,2.01,0,0,1,2.023,2V89.91A2.01,2.01,0,0,1,87.249,91.908Z" transform="translate(-65 -18)" fill="#fbb732"/></g><g transform="translate(0.674 81.324)"><path d="M102.188,83.045H19.5A2.023,2.023,0,0,1,19.5,79h82.688a2.023,2.023,0,0,1,0,4.045Z" transform="translate(-17.5 -79)" fill="#fbb732"/></g></g></g></g></svg>