<svg xmlns="http://www.w3.org/2000/svg" width="195.98" height="178.398" viewBox="0 0 195.98 178.398"><g transform="translate(-303 -98.47)"><path d="M131.65,178.4H64.33a30.708,30.708,0,0,1-26.543-15.347L4.069,104.479a30.726,30.726,0,0,1,0-30.559l33.72-58.573A30.7,30.7,0,0,1,64.33,0h67.32a30.706,30.706,0,0,1,26.543,15.347L191.911,73.92a30.719,30.719,0,0,1,0,30.559l-16.166,28.083a7.657,7.657,0,1,1-13.271-7.64l16.166-28.083a15.363,15.363,0,0,0,0-15.279L144.921,22.987a15.351,15.351,0,0,0-13.271-7.673H64.33a15.351,15.351,0,0,0-13.271,7.673L17.34,81.56a15.363,15.363,0,0,0,0,15.279l33.718,58.572a15.351,15.351,0,0,0,13.271,7.673h67.32a15.351,15.351,0,0,0,13.271-7.673,7.657,7.657,0,1,1,13.271,7.64A30.708,30.708,0,0,1,131.65,178.4Z" transform="translate(303 98.469)" fill="#fbb732"/><g transform="translate(357.135 139.008)"><path d="M38.763,94.351H18.917A5.874,5.874,0,0,1,14.6,92.637a5.8,5.8,0,0,1-1.726-4.286V12.058A4.956,4.956,0,0,0,7.7,6.915V3.2H48.829V6.915H14.89a8.523,8.523,0,0,1,1.726,5.143l-.288,76.293a2.464,2.464,0,0,0,.863,1.714,2.492,2.492,0,0,0,1.726.857H38.763Z" transform="translate(1.216 -3.2)" fill="#fbb732"/><path d="M63.355,94.351H34.306V90.636H56.164a9.918,9.918,0,0,1-1.726-4.858V9.2a2.466,2.466,0,0,0-2.3-2.286H20.5V3.2H52.425a6.056,6.056,0,0,1,6.04,6V86.065a5.024,5.024,0,0,0,4.889,4.858v3.429Z" transform="translate(24.682 -3.2)" fill="#fbb732"/><rect width="45.443" height="3.739" transform="translate(25.556 20.289)" fill="#fbb732"/><rect width="45.443" height="3.739" transform="translate(25.556 29.719)" fill="#fbb732"/><rect width="45.443" height="3.739" transform="translate(25.556 39.15)" fill="#fbb732"/><rect width="45.443" height="3.739" transform="translate(25.556 48.58)" fill="#fbb732"/><path d="M43.428,81.144h-32.5a2.578,2.578,0,0,1-2.589-2.589V12.116a5.156,5.156,0,0,1,5.177-5.177h23.3V3.2h-23.3A8.961,8.961,0,0,0,4.6,12.116V78.268A6.384,6.384,0,0,0,10.928,84.6H44.579A12.178,12.178,0,0,1,43.428,81.144Z" transform="translate(-4.6 -3.2)" fill="#fbb732"/><path d="M26.45,30.3a12.179,12.179,0,0,1-1.15,3.451H41.982V30.3H26.45Z" transform="translate(33.688 47.046)" fill="#fbb732"/><path d="M31,32.575c-.288,0-.575.288-.863.575v7.19L26.69,38.9l-3.451,1.438v-6.9c-.575-.288-.863-.575-1.438-.863s-1.438-.288-2.3-.575V45.806l7.19-2.876,7.19,2.876V32A10.219,10.219,0,0,0,31,32.575Z" transform="translate(23.038 50.235)" fill="#fbb732"/><path d="M32.131,53.863A6.459,6.459,0,0,1,28.1,52.137c-.575-.288-.863-.575-1.438-.863a2.155,2.155,0,0,0-1.438-.288A7.227,7.227,0,0,1,21.2,49.261a7.227,7.227,0,0,1-1.726-4.027,12.457,12.457,0,0,0-.288-1.438,6.287,6.287,0,0,1-.863-1.438c-.575-1.15-1.726-2.3-1.726-4.027A6.459,6.459,0,0,1,18.326,34.3c.288-.575.575-.863.863-1.438a2.155,2.155,0,0,0,.288-1.438A7.227,7.227,0,0,1,21.2,27.4a7.227,7.227,0,0,1,4.027-1.726,12.457,12.457,0,0,0,1.438-.288,6.287,6.287,0,0,1,1.438-.863c1.15-.575,2.3-1.726,4.027-1.726a6.459,6.459,0,0,1,4.027,1.726c.575.288.863.575,1.438.863a2.155,2.155,0,0,0,1.438.288A7.227,7.227,0,0,1,43.061,27.4a7.227,7.227,0,0,1,1.726,4.027,12.457,12.457,0,0,0,.288,1.438,6.287,6.287,0,0,1,.863,1.438c.575,1.15,1.726,2.3,1.726,4.027a6.459,6.459,0,0,1-1.726,4.027c-.288.575-.575.863-.863,1.438a2.155,2.155,0,0,0-.288,1.438,7.227,7.227,0,0,1-1.726,4.027,7.227,7.227,0,0,1-4.027,1.726,12.457,12.457,0,0,0-1.438.288,6.287,6.287,0,0,1-1.438.863A7.227,7.227,0,0,1,32.131,53.863Zm0-26.748c-.575,0-1.15.575-2.013.863a12.506,12.506,0,0,1-2.013,1.15,6.769,6.769,0,0,1-2.3.575c-.863.288-1.726.288-2.013.575a3.352,3.352,0,0,0-.575,2.013c-.288.863-.288,1.438-.575,2.3a7.209,7.209,0,0,1-1.15,2.013,3.823,3.823,0,0,0-.863,2.013c0,.575.575,1.15.863,2.013a12.505,12.505,0,0,1,1.15,2.013,6.769,6.769,0,0,1,.575,2.3c.288.863.288,1.726.575,2.013a3.352,3.352,0,0,0,2.013.575c.863.288,1.438.288,2.3.575a7.209,7.209,0,0,1,2.013,1.15,3.823,3.823,0,0,0,2.013.863c.575,0,1.15-.575,2.013-.863a12.506,12.506,0,0,1,2.013-1.15,6.769,6.769,0,0,1,2.3-.575c.863-.288,1.726-.288,2.013-.575a3.352,3.352,0,0,0,.575-2.013c.288-.863.288-1.438.575-2.3a7.209,7.209,0,0,1,1.15-2.013,3.823,3.823,0,0,0,.863-2.013c0-.575-.575-1.15-.863-2.013a12.505,12.505,0,0,1-1.15-2.013,6.769,6.769,0,0,1-.575-2.3c-.288-.863-.288-1.726-.575-2.013a3.352,3.352,0,0,0-2.013-.575c-.863-.288-1.438-.288-2.3-.575a7.209,7.209,0,0,1-2.013-1.15A5,5,0,0,0,32.131,27.114Z" transform="translate(17.585 32.974)" fill="#fbb732"/><path d="M32.131,53.863A6.459,6.459,0,0,1,28.1,52.137c-.575-.288-.863-.575-1.438-.863a2.155,2.155,0,0,0-1.438-.288A7.227,7.227,0,0,1,21.2,49.261a7.227,7.227,0,0,1-1.726-4.027,12.457,12.457,0,0,0-.288-1.438,6.287,6.287,0,0,1-.863-1.438c-.575-1.15-1.726-2.3-1.726-4.027A6.459,6.459,0,0,1,18.326,34.3c.288-.575.575-.863.863-1.438a2.155,2.155,0,0,0,.288-1.438A7.227,7.227,0,0,1,21.2,27.4a7.227,7.227,0,0,1,4.027-1.726,12.457,12.457,0,0,0,1.438-.288,6.287,6.287,0,0,1,1.438-.863c1.15-.575,2.3-1.726,4.027-1.726a6.459,6.459,0,0,1,4.027,1.726c.575.288.863.575,1.438.863a2.155,2.155,0,0,0,1.438.288A7.227,7.227,0,0,1,43.061,27.4a7.227,7.227,0,0,1,1.726,4.027,12.457,12.457,0,0,0,.288,1.438,6.287,6.287,0,0,1,.863,1.438c.575,1.15,1.726,2.3,1.726,4.027a6.459,6.459,0,0,1-1.726,4.027c-.288.575-.575.863-.863,1.438a2.155,2.155,0,0,0-.288,1.438,7.227,7.227,0,0,1-1.726,4.027,7.227,7.227,0,0,1-4.027,1.726,12.457,12.457,0,0,0-1.438.288,6.287,6.287,0,0,1-1.438.863A7.227,7.227,0,0,1,32.131,53.863Zm0-26.748c-.575,0-1.15.575-2.013.863a12.506,12.506,0,0,1-2.013,1.15,6.769,6.769,0,0,1-2.3.575c-.863.288-1.726.288-2.013.575a3.352,3.352,0,0,0-.575,2.013c-.288.863-.288,1.438-.575,2.3a7.209,7.209,0,0,1-1.15,2.013,3.823,3.823,0,0,0-.863,2.013c0,.575.575,1.15.863,2.013a12.505,12.505,0,0,1,1.15,2.013,6.769,6.769,0,0,1,.575,2.3c.288.863.288,1.726.575,2.013a3.352,3.352,0,0,0,2.013.575c.863.288,1.438.288,2.3.575a7.209,7.209,0,0,1,2.013,1.15,3.823,3.823,0,0,0,2.013.863c.575,0,1.15-.575,2.013-.863a12.506,12.506,0,0,1,2.013-1.15,6.769,6.769,0,0,1,2.3-.575c.863-.288,1.726-.288,2.013-.575a3.352,3.352,0,0,0,.575-2.013c.288-.863.288-1.438.575-2.3a7.209,7.209,0,0,1,1.15-2.013,3.823,3.823,0,0,0,.863-2.013c0-.575-.575-1.15-.863-2.013a12.505,12.505,0,0,1-1.15-2.013,6.769,6.769,0,0,1-.575-2.3c-.288-.863-.288-1.726-.575-2.013a3.352,3.352,0,0,0-2.013-.575c-.863-.288-1.438-.288-2.3-.575a7.209,7.209,0,0,1-2.013-1.15A5,5,0,0,0,32.131,27.114Z" transform="translate(17.585 32.974)" fill="#fbb732"/></g></g></svg>