<svg xmlns="http://www.w3.org/2000/svg" width="195.98" height="178.398" viewBox="0 0 195.98 178.398"><g transform="translate(-519 -98.47)"><path d="M131.65,178.4H64.33a30.708,30.708,0,0,1-26.543-15.347L4.069,104.479a30.726,30.726,0,0,1,0-30.559l33.72-58.573A30.7,30.7,0,0,1,64.33,0h67.32a30.706,30.706,0,0,1,26.543,15.347L191.911,73.92a30.719,30.719,0,0,1,0,30.559l-16.166,28.083a7.657,7.657,0,1,1-13.271-7.64l16.166-28.083a15.363,15.363,0,0,0,0-15.279L144.921,22.987a15.351,15.351,0,0,0-13.271-7.673H64.33a15.351,15.351,0,0,0-13.271,7.673L17.34,81.56a15.363,15.363,0,0,0,0,15.279l33.718,58.572a15.351,15.351,0,0,0,13.271,7.673h67.32a15.351,15.351,0,0,0,13.271-7.673,7.657,7.657,0,1,1,13.271,7.64A30.708,30.708,0,0,1,131.65,178.4Z" transform="translate(519 98.469)" fill="#fbb732"/><g transform="translate(567.339 142.835)"><g transform="translate(0 0)"><path d="M33.746,103.483a1.887,1.887,0,0,1-.915-.237,1.914,1.914,0,0,1-.986-1.652L31.614,81.6C18.662,74.7,10.969,63.686,10.969,51.948c0-20.127,22.181-36.5,49.445-36.5s49.445,16.376,49.445,36.5c0,19.317-23.971,36.278-51.436,36.5L34.747,103.2A1.9,1.9,0,0,1,33.746,103.483ZM60.414,19.266c-25.169,0-45.645,14.661-45.645,32.68,0,10.572,7.322,20.581,19.585,26.776A1.916,1.916,0,0,1,35.4,80.408l.205,17.755L56.88,84.912a1.9,1.9,0,0,1,1-.287c25.666,0,48.179-15.27,48.179-32.678C106.059,33.928,85.584,19.266,60.414,19.266Z" transform="translate(-10.969 -15.446)" fill="#fbb732"/><g transform="translate(24.269 31.349)"><path d="M35.392,50.547a5.221,5.221,0,1,1,5.223-5.22A5.227,5.227,0,0,1,35.392,50.547Zm0-6.563a1.342,1.342,0,1,0,1.343,1.343A1.343,1.343,0,0,0,35.392,43.983Z" transform="translate(-30.172 -40.104)" fill="#fbb732"/></g><g transform="translate(43.936 31.349)"><path d="M50.955,50.547a5.221,5.221,0,1,1,5.221-5.22A5.228,5.228,0,0,1,50.955,50.547Zm0-6.563A1.342,1.342,0,1,0,52.3,45.327,1.345,1.345,0,0,0,50.955,43.983Z" transform="translate(-45.734 -40.104)" fill="#fbb732"/></g><g transform="translate(63.604 31.349)"><path d="M66.52,50.547a5.221,5.221,0,1,1,5.22-5.22A5.228,5.228,0,0,1,66.52,50.547Zm0-6.563a1.342,1.342,0,1,0,1.341,1.343A1.345,1.345,0,0,0,66.52,43.983Z" transform="translate(-61.297 -40.104)" fill="#fbb732"/></g></g></g></g></svg>