<svg xmlns="http://www.w3.org/2000/svg" width="195.98" height="178.398" viewBox="0 0 195.98 178.398"><g transform="translate(-303 -297.47)"><path d="M131.65,178.4H64.33a30.708,30.708,0,0,1-26.543-15.347L4.069,104.479a30.726,30.726,0,0,1,0-30.559l33.72-58.573A30.7,30.7,0,0,1,64.33,0h67.32a30.706,30.706,0,0,1,26.543,15.347L191.911,73.92a30.719,30.719,0,0,1,0,30.559l-16.166,28.083a7.657,7.657,0,1,1-13.271-7.64l16.166-28.083a15.363,15.363,0,0,0,0-15.279L144.921,22.987a15.351,15.351,0,0,0-13.271-7.673H64.33a15.351,15.351,0,0,0-13.271,7.673L17.34,81.56a15.363,15.363,0,0,0,0,15.279l33.718,58.572a15.351,15.351,0,0,0,13.271,7.673h67.32a15.351,15.351,0,0,0,13.271-7.673,7.657,7.657,0,1,1,13.271,7.64A30.708,30.708,0,0,1,131.65,178.4Z" transform="translate(303 297.469)" fill="#fbb732"/><g transform="translate(356.979 342.366)"><g transform="translate(0 0)"><path d="M52.517,96.535a44.019,44.019,0,1,1,44.019-44.02A44.069,44.069,0,0,1,52.517,96.535Zm0-84.855A40.837,40.837,0,1,0,93.353,52.517,40.882,40.882,0,0,0,52.517,11.68Z" transform="translate(-8.498 -8.498)" fill="#fbb732"/><g transform="translate(42.415 0.537)"><path d="M50.1,95.964a1.6,1.6,0,0,1-1.6-1.591V10.591a1.6,1.6,0,0,1,3.207,0V94.373A1.6,1.6,0,0,1,50.1,95.964Z" transform="translate(-48.5 -9)" fill="#fbb732"/></g><g transform="translate(10.643 15.138)"><path d="M51.489,33.7c-12.5,0-24.255-2.8-32.265-7.676a1.614,1.614,0,0,1-.541-2.2,1.579,1.579,0,0,1,2.179-.545c7.53,4.586,18.693,7.215,30.627,7.215,12.189,0,23.5-2.721,31.036-7.466a1.579,1.579,0,0,1,2.187.512,1.614,1.614,0,0,1-.507,2.208C76.18,30.8,64.254,33.7,51.489,33.7Z" transform="translate(-18.455 -22.786)" fill="#fbb732"/></g><g transform="translate(10.681 62.334)"><path d="M83.313,78.17a1.56,1.56,0,0,1-.829-.237c-7.567-4.7-18.866-7.394-31-7.394-11.88,0-23.033,2.606-30.6,7.149a1.578,1.578,0,0,1-2.175-.559,1.612,1.612,0,0,1,.553-2.2c8.041-4.829,19.783-7.6,32.217-7.6,12.7,0,24.607,2.868,32.66,7.868a1.612,1.612,0,0,1,.522,2.205A1.579,1.579,0,0,1,83.313,78.17Z" transform="translate(-18.491 -67.332)" fill="#fbb732"/></g><g transform="translate(0.537 44.536)"><path d="M94.373,53.707H10.591a1.6,1.6,0,0,1,0-3.207H94.373a1.6,1.6,0,0,1,0,3.207Z" transform="translate(-9 -50.5)" fill="#fbb732"/></g><g transform="translate(20.213 1.146)"><path d="M51.407,95.059c-13.279,0-23.68-18.775-23.68-42.744S38.128,9.57,51.407,9.57s23.68,18.775,23.68,42.744S64.686,95.059,51.407,95.059Zm0-82.307c-11.29,0-20.474,17.748-20.474,39.563s9.185,39.563,20.474,39.563S71.881,74.131,71.881,52.316,62.7,12.752,51.407,12.752Z" transform="translate(-27.727 -9.57)" fill="#fbb732"/></g></g></g></g></svg>