<svg xmlns="http://www.w3.org/2000/svg" width="195.98" height="178.398" viewBox="0 0 195.98 178.398"><g transform="translate(-951 -98.47)"><path d="M131.65,178.4H64.33a30.708,30.708,0,0,1-26.543-15.347L4.069,104.479a30.726,30.726,0,0,1,0-30.559l33.72-58.573A30.7,30.7,0,0,1,64.33,0h67.32a30.706,30.706,0,0,1,26.543,15.347L191.911,73.92a30.719,30.719,0,0,1,0,30.559l-16.166,28.083a7.657,7.657,0,1,1-13.271-7.64l16.166-28.083a15.363,15.363,0,0,0,0-15.279L144.921,22.987a15.351,15.351,0,0,0-13.271-7.673H64.33a15.351,15.351,0,0,0-13.271,7.673L17.34,81.56a15.363,15.363,0,0,0,0,15.279l33.718,58.572a15.351,15.351,0,0,0,13.271,7.673h67.32a15.351,15.351,0,0,0,13.271-7.673,7.657,7.657,0,1,1,13.271,7.64A30.708,30.708,0,0,1,131.65,178.4Z" transform="translate(951 98.469)" fill="#fbb732"/><g transform="translate(992.949 149.636)"><g transform="translate(0 0)"><g transform="translate(8.907)"><path d="M104.273,84.9H16.191A3.191,3.191,0,0,1,13,81.716V23.181A3.191,3.191,0,0,1,16.191,20h88.082a3.191,3.191,0,0,1,3.191,3.181V81.716A3.191,3.191,0,0,1,104.273,84.9ZM16.83,81.08h86.805V23.817H16.83Z" transform="translate(-13 -20)" fill="#fbb732"/></g><g transform="translate(0.636 72.737)"><path d="M115.593,80.817H8.414a1.909,1.909,0,1,1,0-3.817H115.593a1.909,1.909,0,1,1,0,3.817Z" transform="translate(-6.5 -77)" fill="#fbb732"/></g><g transform="translate(108.462 67.01)"><path d="M92.909,81.407A1.908,1.908,0,0,1,91,79.5v-5.09a1.909,1.909,0,1,1,3.817,0V79.5A1.908,1.908,0,0,1,92.909,81.407Z" transform="translate(-91 -72.5)" fill="#fbb732"/></g><g transform="translate(0 67.01)"><path d="M7.909,81.407A1.908,1.908,0,0,1,6,79.5v-5.09a1.909,1.909,0,1,1,3.817,0V79.5A1.908,1.908,0,0,1,7.909,81.407Z" transform="translate(-6 -72.5)" fill="#fbb732"/></g><g transform="translate(20.297 19.802)"><path d="M23.742,59.664a1.908,1.908,0,0,1-1.35-3.258L35.067,43.732a1.966,1.966,0,0,1,2.7,0L48.414,54.38,62.9,39.891a1.908,1.908,0,0,1,2.7,0L76.014,50.3,90.259,36.06a1.908,1.908,0,0,1,2.7,2.7L77.365,54.352a1.908,1.908,0,0,1-2.7,0L64.253,43.939,49.764,58.429a1.908,1.908,0,0,1-2.7,0L36.417,47.781,25.092,59.106A1.9,1.9,0,0,1,23.742,59.664Z" transform="translate(-21.833 -35.501)" fill="#fbb732"/></g></g></g></g></svg>