<svg xmlns="http://www.w3.org/2000/svg" width="204.652" height="229.134" viewBox="0 0 204.652 229.134"><g transform="translate(-909 -669)"><path d="M284.27,223.11a2,2,0,0,1-2-2V189a2,2,0,0,1,4,0v32.16a2,2,0,0,1-2,1.95Z" transform="translate(806.326 578.57)" fill="#7a7a7a"/><path d="M229.83,283.79a2,2,0,0,1-1-3.76l29.59-16.24a2,2,0,1,1,1.93,3.51l-29.59,16.24A2,2,0,0,1,229.83,283.79Z" transform="translate(806.326 578.57)" fill="#7a7a7a"/><path d="M180.15,283.8a2,2,0,0,1-1-.25L149.57,267.3a2,2,0,1,1,1.92-3.51L181.11,280a2,2,0,0,1-1,3.76Z" transform="translate(806.326 578.57)" fill="#7a7a7a"/><path d="M125.68,223.2a2,2,0,0,1-2-2V188.7a2,2,0,0,1,4,0v32.5A2,2,0,0,1,125.68,223.2Z" transform="translate(806.326 578.57)" fill="#7a7a7a"/><path d="M150.66,146.37a2,2,0,0,1-1-3.76l29.52-16.2a2,2,0,0,1,1.93,3.51l-29.53,16.2A1.94,1.94,0,0,1,150.66,146.37Z" transform="translate(806.326 578.57)" fill="#7a7a7a"/><path d="M259.31,146.38a2,2,0,0,1-1-.25l-29.54-16.21a2,2,0,0,1,1.92-3.51l29.55,16.22a2,2,0,0,1-1,3.75Z" transform="translate(806.326 578.57)" fill="#7a7a7a"/><path d="M205.05,268.86a2,2,0,0,1-2-2V236.7a2,2,0,0,1,4,0v30.16A2,2,0,0,1,205.05,268.86Z" transform="translate(806.326 578.57)" fill="#7a7a7a"/><path d="M231.79,191.28a2,2,0,0,1-1-3.76l27.69-15.19a2,2,0,1,1,1.92,3.51L232.75,191A2,2,0,0,1,231.79,191.28Z" transform="translate(806.326 578.57)" fill="#7a7a7a"/><path d="M178.44,191.31a2,2,0,0,1-1-.25l-27.95-15.35a2,2,0,1,1,1.93-3.51l28,15.36a2,2,0,0,1-1,3.75Z" transform="translate(806.326 578.57)" fill="#7a7a7a"/><path d="M284.33,140.25h0a15.857,15.857,0,1,1,0-.03m0-4a23,23,0,1,0,11.83,3.28A23,23,0,0,0,284.33,136.22Z" transform="translate(806.326 578.57)" fill="rgba(251,183,50,0.61)"/><path d="M284.3,231.78h0a19.078,19.078,0,1,0,.01,0m0-4a23,23,0,1,0,11.83,3.29A23,23,0,0,0,284.31,227.78Z" transform="translate(806.326 578.57)" fill="#272d43"/><path d="M205.05,277.56h0a19,19,0,1,1-16.31,9.22,19,19,0,0,1,16.31-9.22m0-4a23,23,0,1,0,11.83,3.29,23,23,0,0,0-11.83-3.29Z" transform="translate(806.326 578.57)" fill="#fcd381"/><path d="M205,94.43a19,19,0,1,1-16.31,9.22A19,19,0,0,1,205,94.43m0-4a23,23,0,1,0,11.82,3.29A23,23,0,0,0,205,90.43Z" transform="translate(806.326 578.57)" fill="#272d43"/><path d="M125.74,140.18a19,19,0,1,1-16.31,9.22,19,19,0,0,1,16.31-9.22m0-4a23,23,0,1,0,11.82,3.29A23,23,0,0,0,125.74,136.18Z" transform="translate(806.326 578.57)" fill="#fcd381"/><path d="M125.71,231.78A19,19,0,1,1,109.4,241a19,19,0,0,1,16.31-9.22m0-4a23,23,0,1,0,11.82,3.29,23,23,0,0,0-11.82-3.29Z" transform="translate(806.326 578.57)" fill="#272d43"/><path d="M205.12,184.18h0a21,21,0,1,1-18,10.19,21,21,0,0,1,18-10.19m0-4a24.86,24.86,0,1,0,.03,0Z" transform="translate(806.326 578.57)" fill="#fbb732"/></g></svg>