<svg xmlns="http://www.w3.org/2000/svg" width="195.98" height="178.398" viewBox="0 0 195.98 178.398"><g transform="translate(-951 -297.47)"><path d="M131.65,178.4H64.33a30.708,30.708,0,0,1-26.543-15.347L4.069,104.479a30.726,30.726,0,0,1,0-30.559l33.72-58.573A30.7,30.7,0,0,1,64.33,0h67.32a30.706,30.706,0,0,1,26.543,15.347L191.911,73.92a30.719,30.719,0,0,1,0,30.559l-16.166,28.083a7.657,7.657,0,1,1-13.271-7.64l16.166-28.083a15.363,15.363,0,0,0,0-15.279L144.921,22.987a15.351,15.351,0,0,0-13.271-7.673H64.33a15.351,15.351,0,0,0-13.271,7.673L17.34,81.56a15.363,15.363,0,0,0,0,15.279l33.718,58.572a15.351,15.351,0,0,0,13.271,7.673h67.32a15.351,15.351,0,0,0,13.271-7.673,7.657,7.657,0,1,1,13.271,7.64A30.708,30.708,0,0,1,131.65,178.4Z" transform="translate(951 297.469)" fill="#fbb732"/><g transform="translate(998.001 342.464)"><g transform="translate(0 0)"><g transform="translate(0 12.431)"><path d="M111.059,106H18.345A2.28,2.28,0,0,1,16.1,103.69V32.712A2.28,2.28,0,0,1,18.345,30.4H56.477a2.316,2.316,0,0,1,0,4.629H20.588v66.349h88.228V61.258a2.244,2.244,0,1,1,4.486,0V103.69A2.28,2.28,0,0,1,111.059,106Z" transform="translate(-16.102 -30.398)" fill="#fbb732"/></g><g transform="translate(82.155)"><path d="M73.667,54.689a2.315,2.315,0,0,1-1.637-3.952L85.122,37.646,72.03,24.553A2.314,2.314,0,1,1,75.3,21.281L90.032,36.01a2.313,2.313,0,0,1,0,3.273L75.3,54.012A2.308,2.308,0,0,1,73.667,54.689Z" transform="translate(-71.351 -20.603)" fill="#fbb732"/></g><g transform="translate(23.909 13.224)"><path d="M35.919,86.217a2.35,2.35,0,0,1-.542-.065,2.313,2.313,0,0,1-1.711-2.788C33.795,82.829,47.1,29.9,104.581,29.9a2.314,2.314,0,0,1,0,4.629c-53.773,0-65.923,47.877-66.412,49.916A2.318,2.318,0,0,1,35.919,86.217Z" transform="translate(-33.602 -29.898)" fill="#fbb732"/></g></g></g></g></svg>