<svg xmlns="http://www.w3.org/2000/svg" width="195.98" height="178.398" viewBox="0 0 195.98 178.398"><g transform="translate(-1167 -98.47)"><path d="M131.65,178.4H64.33a30.708,30.708,0,0,1-26.543-15.347L4.069,104.479a30.726,30.726,0,0,1,0-30.559l33.72-58.573A30.7,30.7,0,0,1,64.33,0h67.32a30.706,30.706,0,0,1,26.543,15.347L191.911,73.92a30.719,30.719,0,0,1,0,30.559l-16.166,28.083a7.657,7.657,0,1,1-13.271-7.64l16.166-28.083a15.363,15.363,0,0,0,0-15.279L144.921,22.987a15.351,15.351,0,0,0-13.271-7.673H64.33a15.351,15.351,0,0,0-13.271,7.673L17.34,81.56a15.363,15.363,0,0,0,0,15.279l33.718,58.572a15.351,15.351,0,0,0,13.271,7.673h67.32a15.351,15.351,0,0,0,13.271-7.673,7.657,7.657,0,1,1,13.271,7.64A30.708,30.708,0,0,1,131.65,178.4Z" transform="translate(1167 98.469)" fill="#fbb732"/><g transform="translate(1213.851 143.738)"><g transform="translate(0 0)"><g transform="translate(49.993)"><path d="M50.856,21.7A1.857,1.857,0,0,1,49,19.84V13.653a1.856,1.856,0,1,1,3.712,0V19.84A1.857,1.857,0,0,1,50.856,21.7Z" transform="translate(-49 -11.797)" fill="#fbb732"/></g><g transform="translate(16.205 79.901)"><path d="M20.451,89.764A1.856,1.856,0,0,1,19.139,86.6l4.425-4.425A1.856,1.856,0,0,1,26.189,84.8l-4.425,4.425A1.858,1.858,0,0,1,20.451,89.764Z" transform="translate(-18.596 -81.628)" fill="#fbb732"/></g><g transform="translate(79.479 14.411)"><path d="M77.713,32.495A1.857,1.857,0,0,1,76.4,29.326l4.39-4.39a1.856,1.856,0,0,1,2.625,2.625l-4.389,4.39A1.852,1.852,0,0,1,77.713,32.495Z" transform="translate(-75.856 -24.392)" fill="#fbb732"/></g><g transform="translate(79.464 79.92)"><path d="M82.106,89.76a1.85,1.85,0,0,1-1.313-.543l-4.405-4.405a1.856,1.856,0,0,1,2.625-2.625l4.4,4.405a1.856,1.856,0,0,1-1.31,3.168Z" transform="translate(-75.844 -81.644)" fill="#fbb732"/></g><g transform="translate(16.202 14.412)"><path d="M24.855,32.509a1.852,1.852,0,0,1-1.313-.544l-4.405-4.4a1.856,1.856,0,1,1,2.625-2.625l4.4,4.405a1.856,1.856,0,0,1-1.31,3.168Z" transform="translate(-18.594 -24.392)" fill="#fbb732"/></g><g transform="translate(30.981 3.813)"><path d="M36.836,24.557a1.858,1.858,0,0,1-1.716-1.146l-2.471-5.964a1.856,1.856,0,0,1,3.429-1.422l2.471,5.964a1.856,1.856,0,0,1-1,2.425A1.808,1.808,0,0,1,36.836,24.557Z" transform="translate(-32.506 -14.879)" fill="#fbb732"/></g><g transform="translate(89.811 30.965)"><path d="M86.064,44.675a1.856,1.856,0,0,1-.712-3.571l5.211-2.158a1.856,1.856,0,0,1,1.421,3.43l-5.211,2.158A1.844,1.844,0,0,1,86.064,44.675Z" transform="translate(-84.206 -38.803)" fill="#fbb732"/></g><g transform="translate(4.287 66.255)"><path d="M10.823,75.927a1.856,1.856,0,0,1-.712-3.571l6.3-2.608a1.857,1.857,0,0,1,1.422,3.43l-6.3,2.608A1.854,1.854,0,0,1,10.823,75.927Z" transform="translate(-8.964 -69.605)" fill="#fbb732"/></g><g transform="translate(66.463 3.814)"><path d="M65.291,24.511a1.855,1.855,0,0,1-1.713-2.566l2.453-5.919a1.856,1.856,0,1,1,3.429,1.422l-2.451,5.919A1.864,1.864,0,0,1,65.291,24.511Z" transform="translate(-63.436 -14.879)" fill="#fbb732"/></g><g transform="translate(89.732 65.781)"><path d="M91.623,75.221a1.844,1.844,0,0,1-.709-.141l-5.625-2.33a1.856,1.856,0,0,1,1.421-3.43l5.625,2.33a1.856,1.856,0,0,1-.712,3.571Z" transform="translate(-84.142 -69.177)" fill="#fbb732"/></g><g transform="translate(4.621 30.208)"><path d="M16.973,44.3a1.848,1.848,0,0,1-.709-.141l-5.883-2.436a1.856,1.856,0,1,1,1.421-3.43l5.883,2.436a1.856,1.856,0,0,1-.712,3.571Z" transform="translate(-9.235 -38.149)" fill="#fbb732"/></g><g transform="translate(92.649 49.971)"><path d="M94.543,59.009H88.356a1.856,1.856,0,0,1,0-3.712h6.187a1.856,1.856,0,1,1,0,3.712Z" transform="translate(-86.5 -55.297)" fill="#fbb732"/></g><g transform="translate(0 49.971)"><path d="M14.781,59.009H7.356a1.856,1.856,0,0,1,0-3.712h7.425a1.856,1.856,0,0,1,0,3.712Z" transform="translate(-5.5 -55.297)" fill="#fbb732"/></g><g transform="translate(16.392 13.395)"><path d="M57.025,98.2A35.161,35.161,0,1,1,92.187,63.043,35.2,35.2,0,0,1,57.025,98.2Zm0-66.61A31.449,31.449,0,1,0,88.474,63.043,31.484,31.484,0,0,0,57.025,31.594Z" transform="translate(-21.864 -27.882)" fill="#fbb732"/></g><g transform="translate(49.151 35.94)"><path d="M50.635,61.185A1.856,1.856,0,0,1,49.336,58L63.555,44.058a1.857,1.857,0,0,1,2.6,2.652L51.936,60.655A1.853,1.853,0,0,1,50.635,61.185Z" transform="translate(-48.779 -43.528)" fill="#fbb732"/></g></g></g></g></svg>