<svg xmlns="http://www.w3.org/2000/svg" width="195.98" height="178.398" viewBox="0 0 195.98 178.398"><g transform="translate(-735 -297.47)"><path d="M131.65,178.4H64.33a30.708,30.708,0,0,1-26.543-15.347L4.069,104.479a30.726,30.726,0,0,1,0-30.559l33.72-58.573A30.7,30.7,0,0,1,64.33,0h67.32a30.706,30.706,0,0,1,26.543,15.347L191.911,73.92a30.719,30.719,0,0,1,0,30.559l-16.166,28.083a7.657,7.657,0,1,1-13.271-7.64l16.166-28.083a15.363,15.363,0,0,0,0-15.279L144.921,22.987a15.351,15.351,0,0,0-13.271-7.673H64.33a15.351,15.351,0,0,0-13.271,7.673L17.34,81.56a15.363,15.363,0,0,0,0,15.279l33.718,58.572a15.351,15.351,0,0,0,13.271,7.673h67.32a15.351,15.351,0,0,0,13.271-7.673,7.657,7.657,0,1,1,13.271,7.64A30.708,30.708,0,0,1,131.65,178.4Z" transform="translate(735 297.469)" fill="#fbb732"/><g transform="translate(786.177 341.972)"><g transform="translate(0 0)"><g transform="translate(45.57)"><path d="M50.694,80.44a1.8,1.8,0,0,1-1.8-1.8V15.05a1.8,1.8,0,0,1,3.6,0V78.64A1.8,1.8,0,0,1,50.694,80.44Z" transform="translate(-48.894 -13.25)" fill="#fbb732"/></g><g transform="translate(10.256 8.793)"><path d="M88.876,28.678a54.644,54.644,0,0,1-9.643-1.526c-6.351-1.325-14.256-2.972-22.725-2.972s-16.374,1.649-22.725,2.972c-6.877,1.434-11.027,2.3-13.163.557a3.366,3.366,0,0,1-1.227-2.725,1.8,1.8,0,0,1,3.592-.018c1.19.511,6.1-.511,10.066-1.339,6.168-1.286,14.616-3.048,23.457-3.048S73.8,22.34,79.965,23.627c3.964.827,8.867,1.851,10.064,1.34a1.838,1.838,0,0,1,1.8-1.74,1.763,1.763,0,0,1,1.8,1.755A3.366,3.366,0,0,1,92.4,27.707,5.381,5.381,0,0,1,88.876,28.678Z" transform="translate(-19.394 -20.579)" fill="#fbb732"/></g><g transform="translate(36.571 73.639)"><path d="M61.191,78.349h-18a1.8,1.8,0,1,1,0-3.6h18a1.8,1.8,0,0,1,0,3.6Z" transform="translate(-41.394 -74.75)" fill="#fbb732"/></g><g transform="translate(24.573 84.438)"><path d="M75.187,87.349H33.194a1.8,1.8,0,0,1,0-3.6H75.187a1.8,1.8,0,0,1,0,3.6Z" transform="translate(-31.394 -83.75)" fill="#fbb732"/></g><g transform="translate(62.231 22.73)"><path d="M78.5,69.054c-8.267,0-12.676-.247-14.73-5.56-4.147-10.722,6.963-29.569,7.438-30.366A1.8,1.8,0,0,1,74.3,34.97C71.317,39.984,64.21,54.651,67.128,62.2,68.2,64.967,69.9,65.454,78.5,65.454c8.663,0,10.386-.492,11.524-3.287,2.943-7.229-3.054-20.967-6.636-27.22l-.515-.9.518-.6c.323-.556.917-.6,1.557-.6h0c.643,0,1.238.049,1.557.608,1.149,2.006,11.1,19.755,6.846,30.216C91.207,68.957,86.784,69.054,78.5,69.054Z" transform="translate(-62.846 -32.249)" fill="#fbb732"/></g><g transform="translate(0 22.73)"><path d="M26.5,69.054c-8.267,0-12.676-.247-14.73-5.56-4.147-10.722,6.963-29.569,7.438-30.366A1.8,1.8,0,1,1,22.3,34.97C19.317,39.984,12.21,54.651,15.128,62.2,16.2,64.967,17.9,65.454,26.5,65.454c8.663,0,10.386-.492,11.524-3.287,2.943-7.229-3.054-20.967-6.636-27.22l-.515-.9.518-.6c.323-.556.917-.6,1.557-.6h0c.643,0,1.238.049,1.557.608,1.149,2.006,11.1,19.755,6.846,30.216C39.207,68.957,34.784,69.054,26.5,69.054Z" transform="translate(-10.846 -32.249)" fill="#fbb732"/></g></g></g></g></svg>