<svg xmlns="http://www.w3.org/2000/svg" width="195.98" height="178.398" viewBox="0 0 195.98 178.398"><g transform="translate(-735 -98.47)"><path d="M131.65,178.4H64.33a30.708,30.708,0,0,1-26.543-15.347L4.069,104.479a30.726,30.726,0,0,1,0-30.559l33.72-58.573A30.7,30.7,0,0,1,64.33,0h67.32a30.706,30.706,0,0,1,26.543,15.347L191.911,73.92a30.719,30.719,0,0,1,0,30.559l-16.166,28.083a7.657,7.657,0,1,1-13.271-7.64l16.166-28.083a15.363,15.363,0,0,0,0-15.279L144.921,22.987a15.351,15.351,0,0,0-13.271-7.673H64.33a15.351,15.351,0,0,0-13.271,7.673L17.34,81.56a15.363,15.363,0,0,0,0,15.279l33.718,58.572a15.351,15.351,0,0,0,13.271,7.673h67.32a15.351,15.351,0,0,0,13.271-7.673,7.657,7.657,0,1,1,13.271,7.64A30.708,30.708,0,0,1,131.65,178.4Z" transform="translate(735 98.469)" fill="#fbb732"/><g transform="translate(788.87 140.609)"><g transform="translate(0 0)"><g transform="translate(0 51.461)"><path d="M13.629,79.721a1.766,1.766,0,0,1-1.765-1.765c0-8.507,6.4-12.8,11.213-15.295a44.43,44.43,0,0,1,10.361-3.908,23.007,23.007,0,0,0,8.895-3.987,1.766,1.766,0,0,1,2.046,2.878,26.56,26.56,0,0,1-10.041,4.523A41.433,41.433,0,0,0,24.7,65.8c-6.436,3.33-9.305,7.081-9.305,12.16A1.766,1.766,0,0,1,13.629,79.721Z" transform="translate(-11.864 -54.44)" fill="#fbb732"/></g><g transform="translate(54.771 51.46)"><path d="M91.354,79.721a1.766,1.766,0,0,1-1.765-1.765c0-5.079-2.869-8.83-9.305-12.16a41.408,41.408,0,0,0-9.636-3.629,26.552,26.552,0,0,1-10.041-4.523,1.765,1.765,0,1,1,2.045-2.878,23.017,23.017,0,0,0,8.895,3.987A44.524,44.524,0,0,1,81.908,62.66c4.814,2.491,11.213,6.786,11.213,15.295A1.768,1.768,0,0,1,91.354,79.721Z" transform="translate(-59.865 -54.439)" fill="#fbb732"/></g><g transform="translate(22.601 0.002)"><path d="M52.539,60.531c-8.229,0-11.243-6.076-14.158-11.952-.407-.819-.817-1.646-1.247-2.469a11.055,11.055,0,0,0-1.057-.617,5.11,5.11,0,0,1-2.623-2.242,33.6,33.6,0,0,1-1.878-9.912c-.048-1.277.913-1.813,2.659-2.788.239-.134.57-.319.846-.48-.013-2.413-.078-4.153-.127-5.459a19.754,19.754,0,0,1,.04-3.622C36.2,13.4,42.1,9.543,52.538,9.543a1.765,1.765,0,0,1,0,3.53c-11.4,0-13.48,4.835-14.057,8.472a18.828,18.828,0,0,0,0,2.936c.055,1.481.132,3.509.132,6.438,0,1.236-.946,1.762-2.658,2.717-.227.127-.535.3-.8.455a30.063,30.063,0,0,0,1.5,7.656,11.334,11.334,0,0,0,1.1.644,5.468,5.468,0,0,1,2.425,1.933c.471.9.918,1.8,1.361,2.69,3.072,6.194,5.248,9.99,11,9.99a1.764,1.764,0,1,1,0,3.528Z" transform="translate(-31.575 -9.543)" fill="#fbb732"/></g><g transform="translate(42.096)"><path d="M50.341,60.532a1.765,1.765,0,1,1,0-3.53c5.748,0,7.923-3.8,11-9.99.444-.893.891-1.794,1.361-2.689a5.463,5.463,0,0,1,2.425-1.934,11.475,11.475,0,0,0,1.1-.644,30.012,30.012,0,0,0,1.5-7.656c-.267-.155-.574-.327-.8-.455-1.712-.955-2.655-1.481-2.658-2.712,0-2.932.078-4.961.132-6.442a18.808,18.808,0,0,0,0-2.935c-.577-3.638-2.662-8.473-14.057-8.473a1.765,1.765,0,0,1,0-3.53c10.436,0,16.34,3.852,17.543,11.45a19.738,19.738,0,0,1,.04,3.621c-.049,1.3-.115,3.044-.127,5.459.275.162.607.346.846.48,1.745.974,2.708,1.511,2.659,2.789a33.635,33.635,0,0,1-1.877,9.911A5.1,5.1,0,0,1,66.8,45.492a11.468,11.468,0,0,0-1.057.617c-.429.821-.84,1.649-1.247,2.469C61.584,54.455,58.571,60.532,50.341,60.532Z" transform="translate(-48.576 -9.541)" fill="#fbb732"/></g><g transform="translate(0 73.155)"><path d="M55.392,93.5A62.339,62.339,0,0,1,12.418,76.312a1.789,1.789,0,0,1-.091-2.495,1.71,1.71,0,0,1,2.447-.093A58.92,58.92,0,0,0,55.392,89.969c16.61,0,30.985-5.529,41.573-15.99a1.707,1.707,0,0,1,2.448.039,1.79,1.79,0,0,1-.038,2.5C88.128,87.625,72.919,93.5,55.392,93.5Z" transform="translate(-11.864 -73.254)" fill="#fbb732"/></g></g></g></g></svg>