<svg xmlns="http://www.w3.org/2000/svg" width="195.98" height="178.398" viewBox="0 0 195.98 178.398"><g transform="translate(-87 -98.47)"><path d="M131.65,178.4H64.33a30.708,30.708,0,0,1-26.543-15.347L4.069,104.479a30.726,30.726,0,0,1,0-30.559l33.72-58.573A30.7,30.7,0,0,1,64.33,0h67.32a30.706,30.706,0,0,1,26.543,15.347L191.911,73.92a30.719,30.719,0,0,1,0,30.559l-16.166,28.083a7.657,7.657,0,1,1-13.271-7.64l16.166-28.083a15.363,15.363,0,0,0,0-15.279L144.921,22.987a15.351,15.351,0,0,0-13.271-7.673H64.33a15.351,15.351,0,0,0-13.271,7.673L17.34,81.56a15.363,15.363,0,0,0,0,15.279l33.718,58.572a15.351,15.351,0,0,0,13.271,7.673h67.32a15.351,15.351,0,0,0,13.271-7.673,7.657,7.657,0,1,1,13.271,7.64A30.708,30.708,0,0,1,131.65,178.4Z" transform="translate(87 98.469)" fill="#fbb732"/><g transform="translate(127.788 143.415)"><g transform="translate(0 0)"><g transform="translate(19.532 8.142)"><g transform="translate(0 44.753)"><path d="M19.244,79.548A1.745,1.745,0,0,1,17.5,77.8c0-7.343,5.5-11.038,9.634-13.178a37.866,37.866,0,0,1,8.829-3.33,19.286,19.286,0,0,0,7.454-3.339A1.745,1.745,0,0,1,45.439,60.8a22.714,22.714,0,0,1-8.59,3.87,34.933,34.933,0,0,0-8.113,3.054c-5.358,2.774-7.749,5.883-7.749,10.08A1.744,1.744,0,0,1,19.244,79.548Z" transform="translate(-17.499 -57.634)" fill="#fbb732"/></g><g transform="translate(47.851 44.752)"><path d="M85.569,79.548A1.745,1.745,0,0,1,83.824,77.8c0-4.2-2.39-7.306-7.749-10.08a34.952,34.952,0,0,0-8.113-3.054,22.721,22.721,0,0,1-8.59-3.87A1.745,1.745,0,0,1,61.4,57.955a19.286,19.286,0,0,0,7.454,3.339,37.993,37.993,0,0,1,8.829,3.33c4.136,2.14,9.634,5.835,9.634,13.178A1.745,1.745,0,0,1,85.569,79.548Z" transform="translate(-58.639 -57.633)" fill="#fbb732"/></g><g transform="translate(19.651 0.001)"><path d="M52.4,62.849c-7.125,0-9.831-5.453-12.217-10.263-.335-.676-.673-1.357-1.027-2.035-.185-.128-.558-.33-.82-.471A4.567,4.567,0,0,1,36,48.054,28.867,28.867,0,0,1,34.4,39.573c-.043-1.236.869-1.746,2.379-2.588.167-.094.388-.216.591-.334-.013-1.971-.066-3.4-.107-4.479a16.952,16.952,0,0,1,.036-3.109c1.043-6.579,6.127-9.912,15.111-9.912a1.745,1.745,0,0,1,0,3.489c-9.464,0-11.19,3.977-11.664,6.968a16.276,16.276,0,0,0,0,2.432c.048,1.257.113,2.98.113,5.47,0,1.191-.9,1.691-2.382,2.52-.154.085-.351.2-.539.3a25.36,25.36,0,0,0,1.218,6.189c.207.141.594.35.844.485a4.8,4.8,0,0,1,2.159,1.741c.4.76.78,1.526,1.156,2.284,2.561,5.162,4.37,8.326,9.092,8.326a1.745,1.745,0,1,1,0,3.489Z" transform="translate(-34.394 -19.151)" fill="#fbb732"/></g><g transform="translate(36.6)"><path d="M50.711,62.849a1.745,1.745,0,0,1,0-3.489c4.72,0,6.529-3.161,9.087-8.319.378-.761.76-1.529,1.161-2.291a4.782,4.782,0,0,1,2.156-1.74c.249-.135.636-.344.843-.485a25.734,25.734,0,0,0,1.219-6.19c-.187-.108-.386-.219-.54-.3-1.484-.828-2.38-1.329-2.38-2.519,0-2.481.065-4.2.112-5.456a16.2,16.2,0,0,0,0-2.446c-.475-2.993-2.2-6.969-11.661-6.969a1.745,1.745,0,0,1,0-3.489c8.982,0,14.066,3.335,15.108,9.911a16.764,16.764,0,0,1,.037,3.123c-.041,1.077-.094,2.5-.106,4.465.2.116.422.24.589.333,1.514.846,2.43,1.356,2.377,2.594a28.8,28.8,0,0,1-1.606,8.474,4.58,4.58,0,0,1-2.336,2.027c-.261.141-.635.343-.819.471-.355.68-.694,1.364-1.031,2.042C60.538,57.4,57.834,62.849,50.711,62.849Z" transform="translate(-48.966 -19.15)" fill="#fbb732"/></g><g transform="translate(0 63.506)"><path d="M55.341,90.148c-14.967,0-27.859-4.622-37.284-13.367a1.744,1.744,0,1,1,2.373-2.558C29.2,82.359,41.271,86.659,55.341,86.659c15.345,0,27.367-4.11,35.733-12.219A1.745,1.745,0,0,1,93.5,76.946C84.463,85.705,71.623,90.148,55.341,90.148Z" transform="translate(-17.499 -73.759)" fill="#fbb732"/></g></g><g transform="translate(69.773 0)"><g transform="translate(18.131 41.355)"><path d="M101.3,68.219a1.745,1.745,0,0,1-1.745-1.745c0-3.823-2.185-6.66-7.088-9.2A32.182,32.182,0,0,0,85,54.467a21.087,21.087,0,0,1-7.979-3.6,1.744,1.744,0,0,1,2.021-2.843,17.7,17.7,0,0,0,6.844,3.064,35.227,35.227,0,0,1,8.184,3.087c3.852,1.992,8.973,5.435,8.973,12.294A1.745,1.745,0,0,1,101.3,68.219Z" transform="translate(-76.288 -47.705)" fill="#fbb732"/></g><g transform="translate(0 0.001)"><path d="M62.446,16.77a1.745,1.745,0,0,1-.653-3.364,20.677,20.677,0,0,1,7.756-1.255,1.745,1.745,0,1,1,0,3.489,17.576,17.576,0,0,0-6.452,1A1.767,1.767,0,0,1,62.446,16.77Z" transform="translate(-60.7 -12.151)" fill="#fbb732"/></g><g transform="translate(7.736)"><path d="M77.256,47.417a1.746,1.746,0,0,1-1.506-2.623c.558-.961,1.076-2,1.624-3.106.349-.7.7-1.416,1.074-2.12A4.508,4.508,0,0,1,80.5,37.9c.214-.115.54-.292.73-.416a23.689,23.689,0,0,0,1.1-5.56c-.151-.087-.306-.173-.429-.242-1.357-.758-2.254-1.26-2.263-2.429,0-2.318.06-3.91.1-5.072a15.107,15.107,0,0,0,.006-2.219c-.432-2.715-2-6.326-10.644-6.326a1.745,1.745,0,1,1,0-3.489c8.373,0,13.113,3.119,14.09,9.27a15.552,15.552,0,0,1,.035,2.9c-.037.982-.086,2.276-.1,4.056.165.094.338.192.473.266,1.393.778,2.315,1.293,2.269,2.515a26.78,26.78,0,0,1-1.493,7.879,4.3,4.3,0,0,1-2.217,1.94c-.226.122-.547.3-.719.409-.322.62-.63,1.241-.936,1.856-.549,1.106-1.117,2.249-1.733,3.31A1.745,1.745,0,0,1,77.256,47.417Z" transform="translate(-67.351 -12.15)" fill="#fbb732"/></g><g transform="translate(35.168 58.858)"><path d="M92.683,71.113a1.744,1.744,0,0,1-.924-3.225,35.459,35.459,0,0,0,5.946-4.642,1.745,1.745,0,0,1,2.429,2.505,39.053,39.053,0,0,1-6.531,5.1A1.737,1.737,0,0,1,92.683,71.113Z" transform="translate(-90.936 -62.754)" fill="#fbb732"/></g></g><g transform="translate(0.01 41.356)"><path d="M2.453,68.219A1.745,1.745,0,0,1,.708,66.474c0-6.859,5.121-10.3,8.973-12.294a35.135,35.135,0,0,1,8.184-3.087,17.714,17.714,0,0,0,6.844-3.064,1.744,1.744,0,1,1,2.021,2.843,21.087,21.087,0,0,1-7.979,3.6,32.163,32.163,0,0,0-7.466,2.811c-4.9,2.537-7.088,5.372-7.088,9.2A1.745,1.745,0,0,1,2.453,68.219Z" transform="translate(-0.708 -47.707)" fill="#fbb732"/></g><g transform="translate(34.303 0.001)"><path d="M39.04,16.77a1.744,1.744,0,0,1-.651-.127,17.576,17.576,0,0,0-6.452-1,1.745,1.745,0,1,1,0-3.489,20.677,20.677,0,0,1,7.756,1.255,1.745,1.745,0,0,1-.653,3.364Z" transform="translate(-30.192 -12.151)" fill="#fbb732"/></g><g transform="translate(18.646)"><path d="M25.34,47.417a1.745,1.745,0,0,1-1.51-.868c-.616-1.061-1.184-2.2-1.733-3.31-.306-.615-.614-1.238-.936-1.856-.171-.114-.492-.287-.719-.409a4.306,4.306,0,0,1-2.216-1.937,26.8,26.8,0,0,1-1.495-7.881c-.045-1.222.876-1.737,2.269-2.516.135-.074.308-.172.473-.266-.013-1.776-.062-3.074-.1-4.056a15.744,15.744,0,0,1,.035-2.9c.977-6.153,5.718-9.271,14.09-9.271a1.745,1.745,0,1,1,0,3.489c-8.64,0-10.213,3.611-10.644,6.327a15.085,15.085,0,0,0,.006,2.218c.044,1.163.1,2.755.1,5.06-.008,1.182-.906,1.683-2.263,2.441-.122.069-.277.155-.429.242a23.736,23.736,0,0,0,1.1,5.56c.19.124.518.3.73.416a4.506,4.506,0,0,1,2.051,1.669c.369.7.722,1.412,1.071,2.116.548,1.1,1.065,2.146,1.624,3.106a1.746,1.746,0,0,1-1.506,2.623Z" transform="translate(-16.731 -12.15)" fill="#fbb732"/></g><g transform="translate(0 58.857)"><path d="M8.681,71.113a1.731,1.731,0,0,1-.92-.264,38.993,38.993,0,0,1-6.531-5.1,1.745,1.745,0,0,1,2.429-2.505A35.46,35.46,0,0,0,9.6,67.887a1.745,1.745,0,0,1-.924,3.226Z" transform="translate(-0.7 -62.753)" fill="#fbb732"/></g></g></g></g></svg>